name C:\Users\u0101727\Documents\MyRepositories\paper-ad\predictivesimulations_2d/Results/PredSim_2D/IK_c20.mot
datacolumns 11
datarows 34
range 0.63317030 0.94975545
endheader
time	pelvis_tilt	pelvis_tx	pelvis_ty	hip_flexion_l	hip_flexion_r	knee_angle_l	knee_angle_r	ankle_angle_l	ankle_angle_r	lumbar_extension	
          0.63317030	        -15.09913738	          0.85494622	          0.89983440	         25.73708249	         11.41473848	        -10.65523452	        -40.88645914	          8.50106248	         -0.31628524	         10.36195280	
          0.64276379	        -15.11620583	          0.86691941	          0.90127095	         24.81844761	         12.68737580	        -10.40862481	        -41.78306434	          8.60345936	          0.66028471	         10.32364750	
          0.65235728	        -15.13078621	          0.87883683	          0.90246386	         23.88456488	         13.99247606	        -10.13722362	        -42.57179422	          8.74657117	          1.71682694	         10.28135110	
          0.66195077	        -15.14286705	          0.89070609	          0.90341642	         22.93985377	         15.32501422	         -9.84878476	        -43.24447696	          8.92452425	          2.83566651	         10.23538701	
          0.67154426	        -15.15257389	          0.90253451	          0.90413927	         21.98818485	         16.67897233	         -9.55036203	        -43.79363875	          9.13079527	          3.99898694	         10.18623661	
          0.68113775	        -15.16006751	          0.91432827	          0.90464947	         21.03376870	         18.04858059	         -9.24955029	        -44.21153473	          9.35768575	          5.18894725	         10.13431852	
          0.69073124	        -15.16548987	          0.92609289	          0.90496783	         20.08117793	         19.42834088	         -8.95419396	        -44.49035903	          9.59716515	          6.38773153	         10.07997543	
          0.70032473	        -15.16898782	          0.93783433	          0.90511582	         19.13521986	         20.81173911	         -8.67269169	        -44.62319786	          9.84131223	          7.57754823	         10.02358742	
          0.70991821	        -15.17078468	          0.94955964	          0.90511374	         18.19908452	         22.19189355	         -8.41056449	        -44.60438694	         10.08283395	          8.74073099	          9.96568796	
          0.71951170	        -15.17119944	          0.96127713	          0.90497973	         17.27356296	         23.56190832	         -8.16906317	        -44.42988028	         10.31511035	          9.85991204	          9.90702083	
          0.72910519	        -15.17051421	          0.97299555	          0.90472932	         16.36010554	         24.91386748	         -7.95108213	        -44.09768450	         10.53136378	         10.91834896	          9.84831777	
          0.73869868	        -15.16897557	          0.98472302	          0.90437562	         15.46086627	         26.23986809	         -7.76019100	        -43.60675051	         10.72555943	         11.90059471	          9.79019084	
          0.74829217	        -15.16682654	          0.99646863	          0.90392927	         14.57739623	         27.53105022	         -7.59938280	        -42.96019725	         10.89310297	         12.79323614	          9.73338111	
          0.75788566	        -15.16432521	          1.00824089	          0.90339933	         13.71063636	         28.77933647	         -7.47077183	        -42.16264828	         11.03105540	         13.58602357	          9.67858603	
          0.76747915	        -15.16173505	          1.02004629	          0.90279384	         12.86146620	         29.97863228	         -7.37542487	        -41.21829295	         11.13830544	         14.27287114	          9.62627887	
          0.77707264	        -15.15929668	          1.03189114	          0.90211927	         12.03055988	         31.12323233	         -7.31494440	        -40.13381423	         11.21560035	         14.85217172	          9.57690425	
          0.78666613	        -15.15723259	          1.04377983	          0.90138088	         11.21823552	         32.21016887	         -7.29023938	        -38.91471903	         11.26575766	         15.32674646	          9.53065418	
          0.79625962	        -15.15575414	          1.05571595	          0.90058238	         10.42438052	         33.23807880	         -7.30170703	        -37.56601298	         11.29323291	         15.70287416	          9.48759413	
          0.80585311	        -15.15508003	          1.06770288	          0.89972562	          9.64874217	         34.20635815	         -7.34936404	        -36.09310644	         11.30333775	         15.98892515	          9.44770479	
          0.81544660	        -15.15549185	          1.07974516	          0.89881070	          8.89071623	         35.11353114	         -7.43265858	        -34.50353198	         11.30132780	         16.19404922	          9.41105934	
          0.82504009	        -15.15738118	          1.09184928	          0.89783640	          8.14924304	         35.95614150	         -7.55051363	        -32.80504033	         11.29078864	         16.32737104	          9.37796726	
          0.83463358	        -15.16106923	          1.10402338	          0.89680157	          7.42397281	         36.72961196	         -7.70322533	        -31.00905956	         11.27250066	         16.39767437	          9.34881529	
          0.84422707	        -15.16662147	          1.11627948	          0.89570888	          6.71581472	         37.42726721	         -7.89449651	        -29.14174940	         11.24481337	         16.41310133	          9.32419226	
          0.85382056	        -15.17406046	          1.12863591	          0.89457084	          6.02680329	         38.03619174	         -8.13058386	        -27.23732298	         11.20165899	         16.38093597	          9.30540301	
          0.86341405	        -15.18340246	          1.14111423	          0.89340921	          5.36011362	         38.54058109	         -8.41865175	        -25.32801068	         11.13059291	         16.30756871	          9.29417370	
          0.87300753	        -15.19432687	          1.15373329	          0.89224652	          4.72016692	         38.93097267	         -8.76719390	        -23.44169328	         11.01531294	         16.19838767	          9.29169572	
          0.88260102	        -15.20603612	          1.16650769	          0.89110072	          4.11224496	         39.20719264	         -9.18609304	        -21.60025626	         10.83928010	         16.05751954	          9.29837543	
          0.89219451	        -15.21731907	          1.17945029	          0.88998610	          3.54162304	         39.37612177	         -9.68564614	        -19.82538827	         10.58823603	         15.88756905	          9.31414178	
          0.90178800	        -15.22695926	          1.19257495	          0.88891480	          3.01316764	         39.44497929	        -10.27549582	        -18.13191106	         10.24934931	         15.68973981	          9.33908679	
          0.91138149	        -15.23381555	          1.20589612	          0.88789597	          2.53132137	         39.42057047	        -10.96421968	        -16.53155385	          9.81047122	         15.46393792	          9.37344835	
          0.92097498	        -15.23663479	          1.21942796	          0.88693486	          2.10070244	         39.31048451	        -11.76081799	        -15.04134028	          9.26076179	         15.20888588	          9.41736597	
          0.93056847	        -15.23415398	          1.23318490	          0.88603255	          1.72683012	         39.11976231	        -12.67558149	        -13.67582099	          8.58925723	         14.92256771	          9.47113278	
          0.94016196	        -15.22496758	          1.24718051	          0.88518474	          1.41561111	         38.85319683	        -13.71943766	        -12.45492685	          7.78553310	         14.60210211	          9.53499983	
          0.94975545	        -15.20751869	          1.26142654	          0.88438028	          1.17269721	         38.51614777	        -14.90258277	        -11.40745575	          6.84209789	         14.24368559	          9.60911686	
